<svg width="1540" height="2137" viewBox="0 0 1540 2137" fill="none" xmlns="http://www.w3.org/2000/svg">
<path d="M128.187 1694.52H1411.86" stroke="black" stroke-width="36" stroke-linecap="round" stroke-linejoin="round"/>
<path d="M550.627 408.027H392.168C353.463 408.027 322.086 439.88 322.086 479.172V1493.08C322.086 1532.37 353.463 1564.22 392.168 1564.22H550.627C589.332 1564.22 620.709 1532.37 620.709 1493.08V479.172C620.709 439.88 589.332 408.027 550.627 408.027Z" fill="#FF0000" stroke="black" stroke-width="36" stroke-linecap="round" stroke-linejoin="round"/>
<path d="M322.086 624.814H620.709" stroke="black" stroke-width="36" stroke-linecap="round" stroke-linejoin="round"/>
<path d="M849.251 408.027H690.792C652.087 408.027 620.71 439.88 620.71 479.172V1493.08C620.71 1532.37 652.087 1564.22 690.792 1564.22H849.251C887.956 1564.22 919.333 1532.37 919.333 1493.08V479.172C919.333 439.88 887.956 408.027 849.251 408.027Z" fill="#67BBC7" stroke="black" stroke-width="36" stroke-linecap="round" stroke-linejoin="round"/>
<path d="M620.71 624.814H919.333" stroke="black" stroke-width="36" stroke-linecap="round" stroke-linejoin="round"/>
<path d="M1147.87 408.027H989.416C950.711 408.027 919.333 439.88 919.333 479.172V1493.08C919.333 1532.37 950.711 1564.22 989.416 1564.22H1147.87C1186.58 1564.22 1217.96 1532.37 1217.96 1493.08V479.172C1217.96 439.88 1186.58 408.027 1147.87 408.027Z" fill="#CF87D0" stroke="black" stroke-width="36" stroke-linecap="round" stroke-linejoin="round"/>
<path d="M197.843 555.432H156.175C119.529 555.432 84.3832 570.211 58.4704 596.516C32.5576 622.822 18 658.5 18 695.701V824.149C18.0112 861.343 32.5738 897.01 58.4854 923.306C84.397 949.602 119.536 964.375 156.175 964.375H197.843V555.432Z" fill="#CACC6C"/>
<path d="M1383.83 964.418H1342.16V555.475H1383.83C1420.46 555.475 1455.6 570.248 1481.51 596.544C1507.43 622.84 1521.99 658.507 1522 695.701V824.149C1522 861.35 1507.44 897.028 1481.53 923.334C1455.62 949.639 1420.47 964.418 1383.83 964.418Z" fill="#CACC6C"/>
<path d="M919.333 624.815H1217.96M197.843 555.432C197.843 210.628 430.365 18 770.021 18C1109.68 18 1342.2 210.671 1342.2 555.432H197.843ZM197.843 555.432H156.175C119.529 555.432 84.3832 570.211 58.4704 596.516C32.5576 622.822 18 658.5 18 695.701V824.149C18.0112 861.343 32.5738 897.01 58.4854 923.306C84.397 949.602 119.536 964.375 156.175 964.375H197.843V555.432ZM1383.83 964.418H1342.16V555.475H1383.83C1420.46 555.475 1455.6 570.248 1481.51 596.544C1507.43 622.84 1521.99 658.507 1522 695.701V824.149C1522 861.35 1507.44 897.028 1481.53 923.334C1455.62 949.639 1420.47 964.418 1383.83 964.418Z" stroke="black" stroke-width="36" stroke-linecap="round" stroke-linejoin="round"/>
<path d="M296.844 1808.9C321.555 1808.9 341.034 1813.91 355.282 1823.93C369.752 1833.95 376.987 1849.31 376.987 1870.01C376.987 1883.81 373.759 1895.61 367.303 1905.41C361.07 1914.98 352.276 1922.44 340.923 1927.78C329.569 1932.9 316.324 1935.68 301.185 1936.13L295.175 1915.42C313.207 1915.65 329.235 1918.54 343.26 1924.11C357.285 1929.45 368.416 1937.13 376.653 1947.15C384.89 1956.94 389.009 1968.63 389.009 1982.21C389.009 1994.9 386.671 2005.7 381.996 2014.6C377.321 2023.28 371.088 2030.41 363.296 2035.97C355.504 2041.54 346.711 2045.66 336.916 2048.33C327.121 2050.78 316.88 2052 306.194 2052H230.393V1808.9H296.844ZM303.189 1912.42C314.765 1912.42 323.225 1909.08 328.568 1902.4C334.133 1895.5 336.916 1887.48 336.916 1878.36C336.916 1867.23 333.465 1859.1 326.564 1853.98C319.663 1848.86 310.313 1846.3 298.514 1846.3H269.462V1912.42H303.189ZM304.525 2015.94C312.762 2015.94 320.219 2014.82 326.898 2012.6C333.577 2010.15 338.808 2006.47 342.593 2001.58C346.6 1996.46 348.603 1990.11 348.603 1982.54C348.603 1974.08 346.266 1967.52 341.591 1962.84C337.138 1958.17 331.35 1954.83 324.227 1952.82C317.103 1950.82 309.645 1949.82 301.853 1949.82H269.462V2015.94H304.525ZM421.36 1979.87C421.36 1965.62 424.7 1952.82 431.378 1941.47C438.057 1929.89 447.407 1920.88 459.428 1914.42C471.672 1907.74 485.475 1904.4 500.835 1904.4C516.641 1904.4 530.332 1907.74 541.908 1914.42C553.707 1920.88 562.834 1929.89 569.29 1941.47C575.746 1952.82 578.974 1965.62 578.974 1979.87C578.974 1994.12 575.746 2007.03 569.29 2018.61C562.834 2029.96 553.707 2038.98 541.908 2045.66C530.332 2052.33 516.53 2055.67 500.501 2055.67C485.363 2055.67 471.783 2052.67 459.762 2046.66C447.741 2040.42 438.279 2031.63 431.378 2020.28C424.7 2008.92 421.36 1995.45 421.36 1979.87ZM459.094 1980.21C459.094 1988.44 460.875 1996.01 464.437 2002.91C467.999 2009.59 472.897 2014.93 479.13 2018.94C485.363 2022.95 492.264 2024.95 499.833 2024.95C508.07 2024.95 515.194 2022.95 521.205 2018.94C527.438 2014.93 532.224 2009.59 535.564 2002.91C539.126 1996.01 540.907 1988.44 540.907 1980.21C540.907 1971.75 539.126 1964.18 535.564 1957.5C532.224 1950.6 527.438 1945.14 521.205 1941.14C515.194 1937.13 508.07 1935.13 499.833 1935.13C492.042 1935.13 485.029 1937.24 478.796 1941.47C472.785 1945.48 467.999 1950.82 464.437 1957.5C460.875 1964.18 459.094 1971.75 459.094 1980.21ZM606.586 1979.87C606.586 1965.62 609.925 1952.82 616.604 1941.47C623.282 1929.89 632.632 1920.88 644.654 1914.42C656.898 1907.74 670.7 1904.4 686.061 1904.4C701.867 1904.4 715.558 1907.74 727.134 1914.42C738.933 1920.88 748.06 1929.89 754.516 1941.47C760.972 1952.82 764.2 1965.62 764.2 1979.87C764.2 1994.12 760.972 2007.03 754.516 2018.61C748.06 2029.96 738.933 2038.98 727.134 2045.66C715.558 2052.33 701.755 2055.67 685.727 2055.67C670.589 2055.67 657.009 2052.67 644.988 2046.66C632.966 2040.42 623.505 2031.63 616.604 2020.28C609.925 2008.92 606.586 1995.45 606.586 1979.87ZM644.32 1980.21C644.32 1988.44 646.101 1996.01 649.663 2002.91C653.225 2009.59 658.122 2014.93 664.356 2018.94C670.589 2022.95 677.49 2024.95 685.059 2024.95C693.296 2024.95 700.42 2022.95 706.43 2018.94C712.664 2014.93 717.45 2009.59 720.789 2002.91C724.351 1996.01 726.132 1988.44 726.132 1980.21C726.132 1971.75 724.351 1964.18 720.789 1957.5C717.45 1950.6 712.664 1945.14 706.43 1941.14C700.42 1937.13 693.296 1935.13 685.059 1935.13C677.267 1935.13 670.255 1937.24 664.022 1941.47C658.011 1945.48 653.225 1950.82 649.663 1957.5C646.101 1964.18 644.32 1971.75 644.32 1980.21ZM803.499 2052V1791.54H840.899V2052H803.499ZM875.961 1957.16L940.409 2052H896.999L851.251 1978.54L875.961 1957.16ZM829.545 2009.59L825.872 1973.53L911.692 1907.41L934.399 1927.44L829.545 2009.59ZM976.333 1910.75H1013.73V2052H976.333V1910.75ZM974.663 1860.33C974.663 1854.54 976.889 1849.75 981.342 1845.97C986.017 1842.18 991.026 1840.29 996.368 1840.29C1001.71 1840.29 1006.5 1842.18 1010.73 1845.97C1015.18 1849.75 1017.41 1854.54 1017.41 1860.33C1017.41 1866.11 1015.18 1870.9 1010.73 1874.68C1006.5 1878.25 1001.71 1880.03 996.368 1880.03C991.026 1880.03 986.017 1878.13 981.342 1874.35C976.889 1870.57 974.663 1865.89 974.663 1860.33ZM1077.39 2052V1943.47H1053.34V1910.41H1077.39V1854.98C1077.39 1835.39 1082.29 1820.03 1092.08 1808.9C1102.1 1797.55 1116.57 1791.87 1135.49 1791.87C1140.83 1791.87 1146.73 1792.65 1153.19 1794.21C1159.65 1795.77 1165.32 1798.21 1170.22 1801.55L1154.53 1828.6C1152.52 1826.38 1150.18 1824.82 1147.51 1823.93C1144.84 1823.04 1142.17 1822.59 1139.5 1822.59C1131.93 1822.59 1125.92 1825.15 1121.47 1830.27C1117.01 1835.39 1114.79 1843.96 1114.79 1855.98V1910.41H1158.87V1943.47H1114.79V2052H1077.39ZM1211.07 2119.79L1304.91 1910.75H1338.97L1247.81 2119.79H1211.07ZM1247.47 2053L1178.68 1910.75H1220.76L1276.19 2033.97L1247.47 2053Z" fill="#1E1E1E"/>
</svg>
